<svg width="32" height="28" viewBox="0 0 32 28" fill="none" xmlns="http://www.w3.org/2000/svg">
<path d="M11.2244 18.4926H9.29975V11.727L7.79528 13.3066L6.69742 12.1184L9.54372 9.16892H11.2244V18.4926Z" fill="white" fill-opacity="0.6"/>
<path d="M15.8887 18.6603C14.8676 18.6603 14.0047 18.4367 13.2999 17.9893C12.6042 17.542 12.2563 16.9037 12.2563 16.0743C12.2563 15.5338 12.437 15.0539 12.7984 14.6345C13.1599 14.2058 13.6252 13.889 14.1945 13.684C13.0017 13.2553 12.4054 12.5238 12.4054 11.4893C12.4054 10.6786 12.7487 10.0682 13.4354 9.65817C14.1312 9.23881 14.949 9.02913 15.8887 9.02913C16.485 9.02913 17.0362 9.10835 17.5422 9.26677C18.0483 9.42519 18.4775 9.7001 18.8299 10.0915C19.1913 10.4736 19.372 10.9395 19.372 11.4893C19.372 12.5144 18.7711 13.246 17.5693 13.684C18.1386 13.889 18.604 14.2058 18.9654 14.6345C19.3359 15.0539 19.5211 15.5338 19.5211 16.0743C19.5211 16.8944 19.1687 17.5327 18.4639 17.9893C17.7591 18.4367 16.9007 18.6603 15.8887 18.6603ZM15.8887 12.9012C16.2592 12.8453 16.6025 12.7241 16.9188 12.5377C17.2441 12.3514 17.4067 12.1044 17.4067 11.7969C17.4067 11.4707 17.2666 11.2144 16.9865 11.0281C16.7064 10.8324 16.3405 10.7345 15.8887 10.7345C15.4369 10.7345 15.0664 10.8324 14.7773 11.0281C14.4972 11.2144 14.3571 11.4707 14.3571 11.7969C14.3571 12.1044 14.5198 12.3514 14.845 12.5377C15.1703 12.7241 15.5182 12.8453 15.8887 12.9012ZM15.8887 16.9549C16.3585 16.9549 16.7561 16.8524 17.0814 16.6474C17.4067 16.4331 17.5693 16.1582 17.5693 15.8227C17.5693 15.4779 17.3841 15.1983 17.0136 14.984C16.6522 14.7696 16.2772 14.6345 15.8887 14.5786C15.5001 14.6345 15.1206 14.7696 14.7502 14.984C14.3887 15.1983 14.208 15.4779 14.208 15.8227C14.208 16.1582 14.3661 16.4331 14.6824 16.6474C15.0077 16.8524 15.4098 16.9549 15.8887 16.9549Z" fill="white" fill-opacity="0.6"/>
<path fill-rule="evenodd" clip-rule="evenodd" d="M2.70603 6.49981C4.14436 4.27974 6.18871 2.54941 8.58056 1.52763C10.9724 0.505851 13.6043 0.238504 16.1435 0.759404C18.6827 1.2803 21.0151 2.56606 22.8457 4.45406C23.4128 5.03895 23.4128 5.98724 22.8457 6.57212C22.2786 7.15701 21.3591 7.15701 20.792 6.57212C19.3676 5.10303 17.5527 4.10256 15.5769 3.69724C13.6011 3.29192 11.5532 3.49994 9.69202 4.29501C7.83087 5.09008 6.24013 6.43648 5.12094 8.16395C4.00175 9.89143 3.40438 11.9224 3.40438 14C3.40438 16.0776 4.00175 18.1086 5.12094 19.836C6.24013 21.5635 7.83087 22.9099 9.69202 23.705C11.5532 24.5001 13.6011 24.7081 15.5769 24.3028C17.5527 23.8974 19.3676 22.897 20.792 21.4279C21.3591 20.843 22.2786 20.843 22.8457 21.4279C23.4128 22.0128 23.4128 22.9611 22.8457 23.5459C21.0151 25.4339 18.6827 26.7197 16.1435 27.2406C13.6043 27.7615 10.9724 27.4942 8.58056 26.4724C6.18871 25.4506 4.14436 23.7203 2.70603 21.5002C1.2677 19.2801 0.5 16.67 0.5 14C0.5 11.33 1.2677 8.71987 2.70603 6.49981Z" fill="white" fill-opacity="0.6"/>
<path fill-rule="evenodd" clip-rule="evenodd" d="M25.6912 17.4946C25.6912 18.0461 26.1247 18.4931 26.6594 18.4931C27.194 18.4931 27.6275 18.0461 27.6275 17.4946V14.4992L30.5319 14.4992C31.0666 14.4992 31.5 14.0522 31.5 13.5008C31.5 12.9493 31.0666 12.5023 30.5319 12.5023H27.6275V9.50692C27.6275 8.95548 27.194 8.50845 26.6594 8.50845C26.1247 8.50845 25.6912 8.95548 25.6912 9.50692V12.5023H22.7869C22.2522 12.5023 21.8187 12.9493 21.8187 13.5008C21.8187 14.0522 22.2522 14.4992 22.7869 14.4992H25.6912V17.4946Z" fill="white" fill-opacity="0.6"/>
</svg>
