<svg width="82" height="40" viewBox="0 0 82 40" fill="none" xmlns="http://www.w3.org/2000/svg">
<g clip-path="url(#clip0_385_42)">
<path d="M44.2413 13.4601L66.3818 13.4144C66.5266 13.4144 66.6714 13.3881 66.8057 13.3327C67.4151 13.0799 67.927 12.6015 68.2194 11.9987C68.9801 10.4285 69.3094 8.11356 69.9386 6.43543H48.54L42.2183 0H82V0.119589L77.0684 15.1333C75.3198 19.3102 71.4611 21.9985 67.2268 22.9513C66.3373 23.1516 65.429 23.244 64.5187 23.2479L52.4223 23.2965L47.6572 34.5874L33.3513 39.999" fill="#FFEDED"/>
<path d="M38.2744 0C39.9388 0.933376 41.6969 2.24691 42.9099 3.75781C44.8535 6.17681 43.9669 7.07421 43.1427 9.59141C41.8615 13.5077 40.058 20.9407 37.5809 23.8983C36.4984 25.1904 32.512 28.2453 30.9091 28.2453H1.2755L7.77127 11.322H19.0218L15.658 20.3797H28.5899C29.1397 20.3797 29.8162 19.2013 29.9799 18.7093L33.9833 6.67461H6.66893L0 0.119589V0H38.2744Z" fill="#FFEDED"/>
</g>
<defs>
<clipPath id="clip0_385_42">
<rect width="82" height="40" fill="white"/>
</clipPath>
</defs>
</svg>
