<svg width="344" height="56" viewBox="0 0 344 56" fill="none" xmlns="http://www.w3.org/2000/svg">
<g clip-path="url(#clip0_385_226)">
<path d="M137.818 0V23.7641H131.208V0H137.818ZM140.597 23.7641H133.924V18.277H140.337C141.547 18.277 142.581 18.0912 143.438 17.7194C144.293 17.3476 144.944 16.6971 145.392 15.7641C145.839 14.8347 146.063 13.5442 146.063 11.8963C146.063 10.2484 145.836 8.9437 145.385 8.0143C144.933 7.0849 144.263 6.43075 143.38 6.05184C142.496 5.67293 141.418 5.48704 140.142 5.48704H133.829V0H140.502C143.009 0 145.176 0.475424 146.994 1.42627C148.816 2.37712 150.22 3.74263 151.214 5.51564C152.208 7.29223 152.702 9.41913 152.702 11.8963C152.702 14.3736 152.208 16.4826 151.221 18.2592C150.235 20.0358 148.835 21.3941 147.027 22.3414C145.216 23.2887 143.075 23.7605 140.601 23.7605L140.597 23.7641Z" fill="#FFEDED"/>
<path d="M176.574 5.3941C175.544 3.61752 174.158 2.27346 172.41 1.36551C170.661 0.457552 168.707 0 166.544 0C164.382 0 162.424 0.453977 160.672 1.36551C158.919 2.27346 157.53 3.61752 156.507 5.3941C155.484 7.17069 154.971 9.35121 154.971 11.9392C154.971 14.5273 155.484 16.6756 156.507 18.445C157.53 20.2181 158.919 21.5585 160.672 22.4736C162.424 23.3888 164.382 23.8463 166.544 23.8463C168.707 23.8463 170.661 23.3923 172.41 22.4808C174.158 21.5728 175.544 20.2324 176.574 18.4593C177.601 16.6863 178.118 14.513 178.118 11.9357C178.118 9.35836 177.604 7.16711 176.574 5.39053V5.3941ZM170.907 15.4459C170.533 16.4004 169.983 17.126 169.254 17.6193C168.524 18.1126 167.618 18.3593 166.544 18.3593C165.47 18.3593 164.579 18.1126 163.85 17.6193C163.12 17.126 162.567 16.4004 162.189 15.4459C161.811 14.4915 161.621 13.3226 161.621 11.9392C161.621 10.5559 161.811 9.36908 162.189 8.40751C162.567 7.44594 163.12 6.72029 163.85 6.22699C164.579 5.73369 165.478 5.48704 166.544 5.48704C167.611 5.48704 168.524 5.73369 169.254 6.22699C169.983 6.72029 170.533 7.44951 170.907 8.40751C171.281 9.36908 171.467 10.5451 171.467 11.9392C171.467 13.3333 171.281 14.4915 170.907 15.4459Z" fill="#FFEDED"/>
<path d="M181.384 0H189.629L195.289 13.462H195.549L201.243 0H209.455V23.7641H202.977V10.0161H202.812L197.383 23.5711H193.456L188.06 9.95175H187.862V23.7641H181.384V0Z" fill="#FFEDED"/>
<path d="M220.754 0V23.7641H214.144V0H220.754Z" fill="#FFEDED"/>
<path d="M246.563 0V23.7641H241.067L232.268 11.2922H232.104V23.7641H225.493V0H231.121L239.758 12.4397H239.956V0H246.566H246.563Z" fill="#FFEDED"/>
<path d="M256.394 23.7641H249.265L257.311 0H266.34L274.388 23.7641H267.257L261.926 6.53798H261.729L256.398 23.7641H256.394ZM255.086 14.3843H268.5V19.1993H255.086V14.3843Z" fill="#FFEDED"/>
<path d="M275.23 5.1975V0H296.394V5.1975H289.065V23.7605H282.555V5.1975H275.227H275.23Z" fill="#FFEDED"/>
<path d="M309.166 23.8359C307.018 23.8359 305.071 23.3784 303.329 22.4668C301.588 21.5517 300.21 20.2112 299.194 18.4382C298.179 16.6688 297.668 14.499 297.668 11.936C297.668 9.37299 298.179 7.16745 299.194 5.39444C300.21 3.62142 301.588 2.27737 303.329 1.36584C305.071 0.457885 307.014 0.00390625 309.166 0.00390625C311.317 0.00390625 313.257 0.457885 314.991 1.36584C316.725 2.27379 318.103 3.61785 319.126 5.39444C320.149 7.17102 320.658 9.35154 320.658 11.936C320.658 14.5204 320.149 16.6831 319.126 18.4561C318.103 20.2255 316.725 21.566 314.991 22.474C313.257 23.3819 311.314 23.8359 309.166 23.8359ZM309.166 18.3524C310.236 18.3524 311.131 18.1058 311.857 17.6125C312.582 17.1192 313.128 16.3935 313.498 15.4391C313.869 14.4847 314.056 13.3158 314.056 11.9324C314.056 10.549 313.869 9.36584 313.498 8.40427C313.128 7.44269 312.582 6.71705 311.857 6.22375C311.131 5.73045 310.236 5.4838 309.166 5.4838C308.095 5.4838 307.215 5.73045 306.489 6.22375C305.763 6.71705 305.213 7.44269 304.839 8.40427C304.462 9.36584 304.275 10.5419 304.275 11.9324C304.275 13.3229 304.462 14.4811 304.839 15.4391C305.213 16.3935 305.767 17.1192 306.489 17.6125C307.215 18.1058 308.106 18.3524 309.166 18.3524Z" fill="#FFEDED"/>
<path d="M324.438 23.7641V0H334.938C336.749 0 338.333 0.321715 339.688 0.965147C341.045 1.60858 342.105 2.53441 342.864 3.73905C343.623 4.94728 344 6.38785 344 8.06792C344 9.74799 343.612 11.2029 342.838 12.3753C342.064 13.5442 340.979 14.4272 339.582 15.0241C338.186 15.6211 336.561 15.9178 334.707 15.9178H328.427V10.9097H333.365C334.149 10.9097 334.82 10.8132 335.378 10.6238C335.935 10.4343 336.36 10.1305 336.654 9.71582C336.947 9.30117 337.094 8.75425 337.094 8.07149C337.094 7.38874 336.947 6.83825 336.654 6.41287C336.36 5.98749 335.935 5.67292 335.378 5.47275C334.82 5.27257 334.149 5.1689 333.365 5.1689H331.041V23.7641H324.431H324.438ZM336.133 23.7641L330.18 12.8543H337.214L343.333 23.7641H336.136H336.133Z" fill="#FFEDED"/>
<path d="M131.189 55.9965V32.5898H141.531C143.313 32.5898 144.874 32.933 146.212 33.6193C147.551 34.3057 148.592 35.2708 149.339 36.5184C150.087 37.7659 150.457 39.2208 150.457 40.8865C150.457 42.5523 150.076 44.0108 149.314 45.2297C148.551 46.4487 147.481 47.3924 146.106 48.0572C144.732 48.7221 143.129 49.0546 141.304 49.0546H135.116V44.1216H139.98C140.754 44.1216 141.414 43.9893 141.964 43.7212C142.513 43.4531 142.931 43.0814 143.221 42.5988C143.51 42.1162 143.658 41.5478 143.658 40.8865C143.658 40.2252 143.51 39.6283 143.221 39.1493C142.931 38.6703 142.513 38.3092 141.964 38.059C141.414 37.8088 140.754 37.6837 139.98 37.6837H137.692V56H131.185L131.189 55.9965Z" fill="#FFEDED"/>
<path d="M153.604 55.9965V32.5898H160.11V50.874H169.811V55.9965H153.604Z" fill="#FFEDED"/>
<path d="M179.063 55.9965H172.04L179.966 32.5898H188.859L196.785 55.9965H189.762L184.508 39.0313H184.314L179.06 55.9965H179.063ZM177.774 46.7596H190.986V51.5032H177.774V46.7596Z" fill="#FFEDED"/>
<path d="M196.766 32.5898H204.047L208.718 42.1091H208.911L213.615 32.5898H220.866L212.072 48.6435V55.9965H205.594V48.6435L196.766 32.5898Z" fill="#FFEDED"/>
<mask id="mask0_385_226" style="mask-type:luminance" maskUnits="userSpaceOnUse" x="0" y="0" width="123" height="56">
<path d="M122.356 0H0V56H122.356V0Z" fill="white"/>
</mask>
<g mask="url(#mask0_385_226)">
<path d="M66.0321 18.9287L99.274 18.8644C99.4914 18.8644 99.7088 18.8275 99.9105 18.7495C100.825 18.394 101.594 17.7213 102.033 16.8736C103.175 14.6655 103.669 11.41 104.614 9.05004H72.486L62.9946 0H122.724V0.168176L115.319 21.2817C112.694 27.1556 106.9 30.9361 100.542 32.2761C99.2073 32.5577 97.8434 32.6876 96.4768 32.6931L78.3151 32.7615L71.1606 48.6397L49.6816 56.25" fill="url(#paint0_linear_385_226)"/>
<path d="M57.1109 0C59.5944 1.30673 62.2177 3.14567 64.0277 5.26093C66.9277 8.64753 65.6048 9.90389 64.375 13.428C62.4634 18.9108 59.7724 29.3169 56.076 33.4576C54.4608 35.2666 48.5125 39.5434 46.1208 39.5434H1.90322L11.5958 15.8509H28.3832L23.3639 28.5315H42.6602C43.4805 28.5315 44.49 26.8818 44.7342 26.193L50.708 9.34445H9.95099L0 0.167424V0H57.1109Z" fill="url(#paint1_linear_385_226)"/>
</g>
</g>
<defs>
<linearGradient id="paint0_linear_385_226" x1="86.2025" y1="0" x2="86.2025" y2="56.25" gradientUnits="userSpaceOnUse">
<stop stop-color="#FF4F8B"/>
<stop offset="0.514423" stop-color="#E72D72"/>
<stop offset="1" stop-color="#CE0B58"/>
</linearGradient>
<linearGradient id="paint1_linear_385_226" x1="32.8854" y1="0" x2="32.8854" y2="39.5434" gradientUnits="userSpaceOnUse">
<stop stop-color="#FF4F8B"/>
<stop offset="0.514423" stop-color="#E72D72"/>
<stop offset="1" stop-color="#CE0B58"/>
</linearGradient>
<clipPath id="clip0_385_226">
<rect width="344" height="56" fill="white"/>
</clipPath>
</defs>
</svg>
