<svg width="130" height="40" viewBox="0 0 130 40" fill="none" xmlns="http://www.w3.org/2000/svg">
<path d="M120.451 31.6204C118.633 31.6204 116.866 31.6204 115.047 31.6204C116.06 29.8106 116.97 28.0007 117.775 26.0875C116.32 23.1918 114.969 20.2185 113.748 17.1676C112.527 14.1167 111.488 11.04 110.578 7.83401C112.553 7.83401 114.424 7.83401 116.346 7.83401C117.489 11.9191 118.762 15.9524 120.347 20.0375C121.906 15.9524 123.179 11.9191 124.218 7.80815C126.089 7.80815 127.934 7.80815 129.882 7.80815C127.388 16.0558 124.504 24.0708 120.451 31.6204Z" fill="#FFEDED"/>
<path d="M31.1541 26.889C29.5952 26.889 28.1143 26.889 26.5555 26.889C23.5157 20.7873 21.1254 14.427 19.1508 7.834C21.0994 7.834 22.996 7.834 24.9187 7.834C26.1138 11.9708 27.3349 16.1334 28.9197 20.1926C30.5046 16.1334 31.7517 11.9966 32.9208 7.834C34.7915 7.834 36.6361 7.834 38.5587 7.834C36.6101 14.3753 34.2459 20.7614 31.1541 26.889Z" fill="#FFEDED"/>
<path d="M88.3125 27.3802C85.4026 27.1734 83.506 25.5704 83.1423 23.3986C83.0383 22.7264 82.9084 22.0541 82.9084 21.3819C82.9084 14.3753 82.9084 7.36862 82.9084 0.361967C82.9084 0.258548 82.9084 0.155129 82.9084 0C84.7271 0 86.4938 0 88.3125 0C88.3125 9.10089 88.3125 18.2018 88.3125 27.3802Z" fill="#FFEDED"/>
<path d="M79.0373 14.4528C78.2838 11.0917 76.2313 8.84234 72.9057 7.83401C71.8925 7.52375 70.8532 7.36862 69.788 7.34276C67.9434 7.29106 66.1247 7.49789 64.332 7.80815C63.3707 7.96328 62.4094 8.14426 61.5 8.45452C61.5 16.1851 61.5 23.864 61.5 31.5946C63.3187 31.5946 65.0854 31.5946 66.9561 31.5946C66.9561 29.8623 66.9561 28.2076 66.9561 26.4753C67.6576 26.7597 68.3071 26.9666 68.9826 27.0958C69.6841 27.2251 70.3856 27.2768 71.0871 27.2768C74.7504 27.251 77.5304 25.2601 78.6735 21.7956C79.479 19.3911 79.6089 16.9349 79.0373 14.4528ZM73.4513 20.1409C72.9317 21.7956 71.7886 22.6488 70.0738 22.6747C68.9826 22.7005 67.9434 22.4937 66.982 21.9249C66.982 18.6672 66.982 15.4353 66.982 12.1776C68.2032 11.9708 69.3983 11.8415 70.5934 12.1259C71.8665 12.4362 72.6979 13.2635 73.2175 14.427C73.6072 15.306 73.7631 16.2627 73.7891 17.2193C73.8151 18.2276 73.7371 19.1843 73.4513 20.1409Z" fill="#FFEDED"/>
<path d="M108.526 15.3577C108.526 14.5304 108.474 13.7289 108.344 12.9015C107.98 10.7815 106.993 9.10089 104.966 8.17012C104.161 7.80815 103.33 7.57546 102.472 7.44618C100.68 7.18763 98.9128 7.2652 97.1461 7.49789C96.003 7.65302 94.8598 7.834 93.6906 8.22183C93.9245 9.66969 94.1583 11.0917 94.3661 12.5396C94.522 12.5137 94.6519 12.5137 94.7559 12.4879C96.4446 11.9708 98.2113 11.8156 99.9781 11.8415C100.628 11.8674 101.251 11.9708 101.823 12.2552C102.628 12.6689 103.07 13.3411 103.174 14.1943C102.992 14.3236 102.862 14.2718 102.732 14.246C101.823 14.1426 100.913 14.0909 100.004 14.1426C98.4452 14.2201 96.9123 14.427 95.4574 15.0733C93.7686 15.8231 92.5735 17.0383 92.0798 18.874C91.872 19.6755 91.846 20.5029 91.8979 21.3044C92.1058 24.0967 93.5607 25.9582 96.2628 26.8114C97.354 27.1475 98.4972 27.3027 99.6403 27.3544C102.109 27.4578 104.577 27.2251 106.993 26.7339C107.513 26.6304 108.032 26.6046 108.552 26.3719C108.552 26.2168 108.552 26.0875 108.552 25.9582C108.526 22.4678 108.526 18.8999 108.526 15.3577ZM103.226 22.8815C101.953 22.8815 100.68 23.0366 99.4584 22.7264C98.2893 22.4161 97.7697 21.7697 97.7437 20.658C97.7177 19.4945 98.2113 18.7964 99.3545 18.4086C100.316 18.0984 102.186 18.0208 103.252 18.2793C103.226 19.8306 103.226 21.3302 103.226 22.8815Z" fill="#FFEDED"/>
<path d="M17.6959 13.5996C17.1763 11.4278 16.0591 9.6697 14.1105 8.50623C12.6296 7.62717 10.9928 7.29106 9.25203 7.31691C5.32889 7.39447 2.52293 9.23016 0.93808 12.7981C-0.205088 15.4095 -0.231069 18.1242 0.470421 20.8648C0.886118 22.5712 1.74349 24.0191 3.09451 25.1567C4.93917 26.708 7.12158 27.3285 9.48586 27.4061C10.4731 27.4319 11.4604 27.4319 12.4217 27.3027C13.7468 27.1217 15.0718 26.9407 16.3449 26.4753C16.5267 26.3978 16.7346 26.3719 16.9165 26.1133C16.6826 24.743 16.4488 23.321 16.2409 21.9507C16.0331 21.8473 15.9292 21.9249 15.8253 21.9766C14.0585 22.5971 12.2399 22.8298 10.3692 22.7781C9.22605 22.7264 8.13484 22.4937 7.19953 21.8215C6.29019 21.1751 5.7186 20.3219 5.61468 19.1326C9.74567 19.1326 13.7987 19.1326 17.9037 19.1326C18.2155 17.1934 18.1116 15.3836 17.6959 13.5996ZM12.7335 15.3578C10.3692 15.3578 8.03092 15.3578 5.66664 15.3578C5.97841 13.0567 7.30345 11.5054 10.0315 11.8415C11.3825 12.0225 12.8114 13.3669 12.7335 15.3578Z" fill="#FFEDED"/>
<path d="M58.0445 15.2026C57.7847 13.703 57.2911 12.3069 56.3817 11.0659C54.5111 8.53208 51.965 7.34276 48.8472 7.31691C48.2497 7.34276 47.6521 7.34276 47.0805 7.44618C43.8329 8.01499 41.5205 9.77311 40.2215 12.7723C39.0004 15.5646 39.0004 18.4603 39.9617 21.3561C40.4813 22.9591 41.3907 24.3294 42.7417 25.4153C45.1839 27.3802 47.9898 27.8198 50.9517 27.251C54.5631 26.527 56.8494 24.2259 57.8107 20.6838C58.2784 18.874 58.3563 17.0383 58.0445 15.2026ZM52.2767 19.934C51.887 21.1751 51.1855 22.1834 49.8605 22.5971C48.2237 23.1142 46.5349 22.4678 45.7035 20.9682C45.054 19.8306 44.8721 18.5896 44.8721 17.452C44.8721 15.9524 45.08 14.6855 45.8074 13.5221C47.0805 11.4278 50.562 11.3503 51.861 13.703C52.2767 14.4787 52.4846 15.2802 52.5885 16.1592C52.7184 17.452 52.6664 18.7189 52.2767 19.934Z" fill="#FFEDED"/>
<path d="M32.9468 37.8514H31.6218V38.8856H33.1027V39.4027H30.9722V35.9123H33.0248V36.4294H31.6218V37.3343H32.9468V37.8514Z" fill="#FFEDED"/>
<path d="M36.1685 39.4027V35.9123H36.8959L37.8053 37.4119C38.0391 37.7997 38.247 38.2134 38.4028 38.5754C38.3509 38.11 38.3509 37.6704 38.3509 37.1275V35.9123H38.9484V39.4027H38.2729L37.3636 37.8514C37.1298 37.4636 36.9219 37.0499 36.7401 36.6621H36.7141C36.7401 37.1016 36.7401 37.567 36.7401 38.1617V39.4027H36.1685Z" fill="#FFEDED"/>
<path d="M42.8456 36.4294H41.8583V35.9123H44.5084V36.4553H43.4951V39.4027H42.8456V36.4294Z" fill="#FFEDED"/>
<path d="M49.3669 37.8514H48.0418V38.8856H49.5227V39.4027H47.3923V35.9123H49.4448V36.4294H48.0418V37.3343H49.3669V37.8514Z" fill="#FFEDED"/>
<path d="M52.5885 35.964C52.8223 35.9123 53.1861 35.8864 53.5498 35.8864C54.0434 35.8864 54.3812 35.964 54.641 36.1708C54.8229 36.326 54.9528 36.5845 54.9528 36.8689C54.9528 37.3085 54.641 37.6187 54.3033 37.748V37.7738C54.5631 37.8773 54.719 38.11 54.7969 38.4461C54.9008 38.8856 55.0048 39.2734 55.0827 39.4286H54.4332C54.3812 39.3251 54.3033 39.0407 54.1993 38.6012C54.0954 38.1358 53.9395 38.0065 53.5758 37.9807H53.264V39.4027H52.6405V35.964H52.5885ZM53.2121 37.4894H53.6018C54.0434 37.4894 54.3033 37.2567 54.3033 36.9206C54.3033 36.5328 54.0435 36.3518 53.6278 36.3518C53.4199 36.3518 53.29 36.3777 53.238 36.3777V37.4894H53.2121Z" fill="#FFEDED"/>
<path d="M58.7461 36.4294H57.7588V35.9123H60.4089V36.4553H59.3956V39.4027H58.7461V36.4294Z" fill="#FFEDED"/>
<path d="M63.6305 38.3944L63.3187 39.3768H62.6692L63.7864 35.8864H64.5918L65.735 39.3768H65.0335L64.7217 38.3944H63.6305ZM64.6438 37.929L64.358 37.0758C64.28 36.8689 64.2281 36.6362 64.1761 36.4294C64.1241 36.6362 64.0722 36.8689 64.0202 37.0758L63.7604 37.929H64.6438Z" fill="#FFEDED"/>
<path d="M69.3723 35.9123V39.4027H68.7228V35.9123H69.3723Z" fill="#FFEDED"/>
<path d="M72.594 39.4027V35.9123H73.3214L74.2308 37.4119C74.4646 37.7997 74.6725 38.2134 74.8283 38.5754C74.7764 38.11 74.7764 37.6704 74.7764 37.1275V35.9123H75.3739V39.4027H74.6984L73.7891 37.8514C73.5553 37.4636 73.3474 37.0499 73.1655 36.6621H73.1396C73.1655 37.1016 73.1655 37.567 73.1655 38.1617V39.4027H72.594Z" fill="#FFEDED"/>
<path d="M81.5834 37.9548C81.5575 37.5153 81.5315 36.9724 81.5315 36.4811H81.5055C81.4016 36.8948 81.2457 37.386 81.0898 37.8256L80.5702 39.351H80.0765L79.6089 37.8514C79.479 37.4119 79.3491 36.9206 79.2451 36.507C79.2192 36.9724 79.2192 37.5153 79.1932 38.0065L79.1152 39.4027H78.5177L78.7515 35.9123H79.5829L80.0506 37.3085C80.1805 37.7221 80.2844 38.1358 80.3623 38.5236H80.3883C80.4922 38.1358 80.5962 37.7221 80.7261 37.3085L81.2197 35.9123H82.0511L82.2589 39.4027H81.6354L81.5834 37.9548Z" fill="#FFEDED"/>
<path d="M87.3772 37.8514H86.0522V38.8856H87.5331V39.4027H85.4026V35.9123H87.4552V36.4294H86.0522V37.3343H87.3772V37.8514Z" fill="#FFEDED"/>
<path d="M90.5989 39.4027V35.9123H91.3263L92.2357 37.4119C92.4695 37.7997 92.6774 38.2134 92.8333 38.5754C92.7813 38.11 92.7813 37.6704 92.7813 37.1275V35.9123H93.3789V39.4027H92.7033L91.794 37.8514C91.5602 37.4636 91.3523 37.0499 91.1705 36.6621H91.1445C91.1705 37.1016 91.1705 37.567 91.1705 38.1617V39.4027H90.5989Z" fill="#FFEDED"/>
<path d="M97.3019 36.4294H96.3147V35.9123H98.9647V36.4553H97.9255V39.4027H97.276V36.4294H97.3019Z" fill="#FFEDED"/>
</svg>
