<svg width="130" height="26" viewBox="0 0 130 26" fill="none" xmlns="http://www.w3.org/2000/svg">
<path d="M11.7933 0.0298781H7.2734V21.3503H4.33807V16.1142H0V23.5253C0 23.5253 0.129882 25.4049 1.37675 25.4049C2.62362 25.4049 10.2087 25.4049 10.2087 25.4049C10.2087 25.4049 11.7933 25.1901 11.7933 23.4179C11.7933 21.6457 11.7933 0.0298781 11.7933 0.0298781Z" fill="#FFEDED"/>
<path d="M25.2229 0.0301359L25.2749 21.3505H21.7161L21.768 0.0301359H17.0143V23.0691C17.0143 23.0691 17.0923 25.432 18.9886 25.432C20.5991 25.432 22.7292 25.432 23.3786 25.432C23.5085 25.432 23.5604 25.432 23.5604 25.432C24.2098 25.432 26.3659 25.432 27.9504 25.432C29.8727 25.432 29.9246 23.0691 29.9246 23.0691V0.0301359H25.2229Z" fill="#FFEDED"/>
<path d="M46.4198 14.5302C45.4327 13.5098 42.5493 10.7709 42.5493 10.7709L39.588 7.89774V4.19218H42.6273V8.64959H47.277V2.4468C47.277 2.4468 47.4848 0.00327881 44.9911 0.00327881C42.4974 0.00327881 37.2761 0.00327881 37.2761 0.00327881C37.2761 0.00327881 35.0421 -0.184684 35.0421 2.28569C35.0421 4.75606 35.0421 8.89126 35.0421 8.89126C35.0421 8.89126 35.2499 9.88478 36.1072 10.8783C36.1591 10.932 36.2111 10.9857 36.263 11.0394C36.3929 11.2005 36.5747 11.3616 36.7826 11.5496L42.7312 17.5376V21.2431H39.7439V16.7857H35.0941V22.9885C35.0941 22.9885 34.8863 25.432 37.38 25.432C39.8737 25.432 45.095 25.432 45.095 25.432C45.095 25.432 47.329 25.62 47.329 23.1496C47.329 20.6792 47.329 16.544 47.329 16.544C47.329 16.544 47.4069 15.5505 46.4198 14.5302Z" fill="#FFEDED"/>
<path d="M63.9281 0.0301359H51.3295V4.4607H55.2779V25.4052H60.0057V4.4607H63.9281V0.0301359Z" fill="#FFEDED"/>
<path d="M89.8265 20.6524V0.0301359H85.2027V25.4052H95.4115V20.6524H89.8265Z" fill="#FFEDED"/>
<path d="M80.2671 14.2617C80.2671 14.2617 80.2671 4.91721 80.2671 2.44684C80.2671 -0.0235392 78.111 0.0301647 78.111 0.0301647H67.7464V25.4321H72.3442V16.5172C73.7729 16.5172 76.1628 16.5172 77.9032 16.5172C80.5268 16.5172 80.2671 14.2617 80.2671 14.2617ZM75.7731 12.382H72.2663V4.19221H75.7731V12.382Z" fill="#FFEDED"/>
<path d="M108.374 0.110697H103.594L98.9183 25.5126H103.386L104.243 20.7598H107.672L108.53 25.5126H113.024L108.374 0.110697ZM104.243 16.5978L105.958 9.15979L107.672 16.5978H104.243Z" fill="#FFEDED"/>
<path d="M125.414 0.110697L123.102 9.15979L120.765 0.110697H116.323L120.765 15.47V25.5126H125.414V15.47L129.882 0.110697H125.414Z" fill="#FFEDED"/>
</svg>
