<svg width="130" height="31" viewBox="0 0 130 31" fill="none" xmlns="http://www.w3.org/2000/svg">
<path d="M95.8541 15.6186C95.0099 15.6186 94.2306 15.6186 93.3864 15.6186C91.8928 15.6186 91.1135 14.9299 91.1135 13.7403C91.1135 12.5507 91.9577 11.9246 93.4513 11.9246H97.4126C99.8803 11.862 100.789 10.8603 100.919 8.48108C101.114 4.41144 99.5556 3.72273 96.1788 3.91056C95.1397 3.97317 94.0358 3.91056 92.9967 3.91056C92.0876 3.91056 91.2434 3.28446 91.1784 2.34531C90.9836 1.40616 91.5031 0.341791 92.4772 0.279181C95.5294 0.0287415 98.6464 -0.472138 101.569 1.09311C103.257 1.96965 104.426 3.5349 104.751 5.35058C105.075 7.04105 105.075 8.85674 104.751 10.5472C104.101 13.4899 101.374 15.6186 98.2568 15.6186C97.4126 15.6186 96.6333 15.6186 95.8541 15.6186Z" fill="#FFEDED"/>
<path d="M116.505 0.0913343C117.544 0.0913343 118.064 0.717433 118.453 1.53136C121.895 8.48106 125.337 15.3682 128.779 22.3179C129.038 22.8187 129.298 23.257 129.493 23.7579C130.012 24.8849 129.688 25.9492 128.714 26.4501C127.74 26.951 126.571 26.5753 125.986 25.3857C124.817 23.0692 123.648 20.69 122.479 18.3734C119.947 13.302 117.414 8.23062 114.947 3.22183C114.167 1.59397 114.882 0.0913343 116.505 0.0913343Z" fill="#FFEDED"/>
<path d="M111.375 13.3647V24.5718C111.439 25.6362 110.66 26.5127 109.556 26.638C109.491 26.638 109.491 26.638 109.426 26.638C108.387 26.638 107.543 25.8866 107.478 24.7597C107.413 24.4466 107.478 24.1336 107.413 23.7579V19.25C107.413 13.8029 107.413 8.35586 107.413 2.9088C107.413 2.53314 107.413 2.15748 107.478 1.71921C107.543 0.71745 108.452 -0.0338689 109.491 0.028741C110.53 0.028741 111.375 0.84267 111.31 1.84443V10.7976C111.31 11.6742 111.31 12.5507 111.375 13.3647Z" fill="#FFEDED"/>
<path d="M38.3832 13.3646V24.5718C38.3832 26.1997 36.8896 27.1388 35.5258 26.4501C35.0063 26.1997 34.6167 25.7614 34.5518 25.2605C34.4868 24.8849 34.4219 24.5718 34.4219 24.1961C34.4219 16.996 34.4219 9.73326 34.4219 2.53312C34.4219 1.84441 34.4868 1.1557 35.0713 0.654818C35.5908 0.153939 36.3701 -0.0338905 37.0844 0.279159C37.8637 0.529599 38.3832 1.28092 38.3182 2.09485V9.67065C38.3832 10.8602 38.3832 12.1124 38.3832 13.3646Z" fill="#FFEDED"/>
<path d="M12.4723 29.9563C11.5631 30.3945 10.3942 30.0815 9.87471 29.1423C9.87471 29.1423 9.87471 29.0797 9.80977 29.0171C9.03051 27.5771 8.38111 26.4501 6.10824 26.4501C2.66647 26.5127 0.0039679 23.4448 0.0039679 20.2517C-0.0609712 19.1874 0.783237 18.2482 1.8872 18.1856H1.95214C3.05611 18.1856 3.90031 18.9995 3.96525 20.0639C4.16007 21.817 5.26404 22.8814 6.82258 22.8814C8.38111 22.8814 9.48508 21.817 9.74484 20.0639C9.87471 18.8743 10.7839 18.123 11.8878 18.1856C12.9918 18.3108 13.836 19.25 13.7061 20.3143V20.377C13.7061 21.6918 13.1866 22.944 12.4073 23.9457C12.0177 24.3214 11.9528 24.9475 12.3424 25.3858C12.732 26.0119 13.1217 26.7006 13.4464 27.3267C13.9659 28.2032 13.6412 29.3928 12.732 29.8937C12.6022 29.8937 12.5372 29.8937 12.4723 29.9563Z" fill="#FFEDED"/>
<path d="M60.2675 18.3734C59.1636 18.3734 58.3193 17.5595 58.3193 16.4951C58.3193 16.2447 58.3843 15.9943 58.4492 15.7438C58.5142 15.556 58.644 15.3682 58.7739 15.1803L69.1642 0.967889C69.6188 0.21657 70.5279 -0.159089 71.3721 0.0913505C72.8008 0.46701 73.2553 1.90704 72.3462 3.22185C70.7227 5.4758 69.0992 7.72976 67.4108 9.92111C65.6575 12.3629 63.8392 14.8047 62.0858 17.2465C61.6962 17.9352 61.0468 18.3108 60.2675 18.3734Z" fill="#FFEDED"/>
<path d="M74.1645 20.3144C74.0995 19.1248 74.8139 18.2482 75.9178 18.123C77.0218 17.9978 77.866 18.8117 78.0608 20.0013C78.3206 21.7544 79.4245 22.8188 80.9831 22.8188C82.5416 22.8188 83.5807 21.7544 83.8404 20.1265C83.9703 18.8743 84.8794 18.0604 85.9834 18.1856C87.0874 18.3108 87.8666 19.1874 87.7368 20.5022C87.477 23.9457 84.4898 26.638 80.9181 26.7006C77.3465 26.638 74.3593 23.8831 74.1645 20.3144Z" fill="#FFEDED"/>
<path d="M23.9663 26.638C20.3297 26.638 17.3425 23.8205 17.1477 20.3144C17.0178 19.25 17.7971 18.2482 18.9011 18.123C20.005 17.9978 20.8492 18.8117 21.0441 20.0013C21.2389 21.6292 22.213 22.6309 23.6416 22.7561C25.0053 22.944 26.2392 22.13 26.6938 20.8778C26.7587 20.6274 26.8236 20.3144 26.8236 20.0639C26.9535 18.8117 27.8627 17.9978 28.9666 18.123C30.1355 18.2482 30.8499 19.1874 30.7849 20.4396C30.5901 23.9457 27.6029 26.638 23.9663 26.638Z" fill="#FFEDED"/>
<path d="M55.6567 20.377C55.5918 23.8205 52.4098 26.7632 48.7732 26.7006C45.1366 26.5754 42.2143 23.7579 42.0845 20.2518C42.0195 19.1874 42.7988 18.3108 43.8378 18.1856C44.8768 18.123 45.8509 18.8743 45.9159 19.8761V19.9387C46.0457 21.1909 46.5653 22.1927 47.864 22.6935C49.3576 23.1944 50.9811 22.5057 51.5006 21.1283C51.5656 20.9405 51.6305 20.8152 51.6305 20.6274C51.6954 20.4396 51.6954 20.2518 51.6954 20.1265C51.8903 18.8743 52.7345 18.1856 53.8384 18.2482C54.9424 18.2482 55.6567 19.1248 55.6567 20.377Z" fill="#FFEDED"/>
<path d="M6.82269 0.0913566C10.3943 0.0287467 13.4465 2.78358 13.6413 6.22713C13.7712 7.47933 13.0568 8.41848 11.8879 8.5437C10.719 8.66891 9.87483 7.9176 9.74495 6.6654C9.55013 5.03754 8.38123 3.97317 6.88763 3.91056C5.39403 3.84795 4.16019 4.97493 3.96537 6.6654C3.83549 7.85499 2.99128 8.60631 1.82238 8.5437C0.653474 8.48109 -0.0608566 7.54194 0.00408249 6.28974C0.1989 2.84619 3.1861 0.0913566 6.82269 0.0913566Z" fill="#FFEDED"/>
<path d="M81.113 0.0913369C84.6197 0.153947 87.477 2.78356 87.8017 6.1645C87.8667 7.4167 87.1524 8.35585 86.0484 8.48106C84.8145 8.60629 83.9703 7.85497 83.8405 6.54016C83.6456 4.97491 82.5417 3.91054 81.0481 3.84793C79.5545 3.78532 78.3206 4.84969 78.1258 6.47755C77.931 7.91758 77.1517 8.60629 75.9179 8.48106C74.749 8.35585 74.0347 7.4167 74.2295 5.97667C74.5542 2.59573 77.5414 -0.0338829 81.113 0.0913369Z" fill="#FFEDED"/>
<path d="M129.623 21.4413C128.454 19.0621 127.22 16.683 126.051 14.2412C125.921 13.9907 125.921 13.6777 125.921 13.4273C125.921 9.67066 125.921 5.85145 125.921 2.09486C125.856 1.21832 126.376 0.466999 127.22 0.15395C127.999 -0.1591 128.908 0.0913395 129.428 0.780049C129.752 1.15571 129.882 1.59398 129.882 2.09486V21.3787L129.623 21.4413Z" fill="#FFEDED"/>
<path d="M55.657 6.41497C55.657 7.60455 55.0076 8.41848 53.9686 8.5437C52.9295 8.66892 51.9554 8.04282 51.8256 7.04106C51.8256 6.91584 51.8256 6.79062 51.8256 6.6654C51.7606 5.10016 50.3969 3.91057 48.7734 3.91057C48.5137 3.91057 48.3189 3.97318 48.124 4.03579C47.0201 4.34884 46.2408 5.22538 46.1109 6.35236C46.1109 6.91584 45.9161 7.47933 45.5265 7.9176C44.8121 8.66892 43.5783 8.79414 42.799 8.10543C42.3445 7.72977 42.1496 7.22889 42.1496 6.6654C41.9548 2.09488 47.3448 -1.28605 51.6957 0.654853C54.0335 1.594 55.592 3.84796 55.657 6.41497Z" fill="#FFEDED"/>
<path d="M114.751 5.35056C115.92 7.72974 117.154 10.1089 118.323 12.5507C118.453 12.8011 118.453 13.1142 118.453 13.3646V24.5718C118.453 25.824 117.673 26.6379 116.57 26.6379C115.466 26.7005 114.556 25.824 114.556 24.5718C114.556 18.1856 114.556 11.7994 114.556 5.35056H114.751Z" fill="#FFEDED"/>
<path d="M21.0444 17.6847C19.7456 16.996 18.5118 16.9334 17.4078 17.6221C17.0831 17.4343 17.1481 17.1838 17.1481 16.9334C17.1481 12.0498 17.1481 7.16625 17.1481 2.28268C17.1481 1.40614 17.4078 0.654819 18.317 0.279159C18.9664 -0.0338903 19.7456 0.0287196 20.3301 0.466989C20.8496 0.780039 21.1093 1.34353 21.1093 1.90702C21.0444 7.10364 21.0444 12.3003 21.0444 17.6847Z" fill="#FFEDED"/>
<path d="M30.7852 17.6847C29.6163 16.8708 27.9929 16.8708 26.8889 17.7473V10.2968C26.8889 7.66713 26.8889 5.03752 26.8889 2.4079C26.8889 0.967873 27.6682 0.0913343 28.902 0.0913343C30.1359 0.0913343 30.8502 0.967873 30.8502 2.47051V16.996C30.7852 17.1838 30.7852 17.3717 30.7852 17.6847Z" fill="#FFEDED"/>
<path d="M67.0212 12.4255C68.9694 16.3073 70.7877 20.0639 72.606 23.7579C73.1904 24.8849 72.7359 26.0119 71.6968 26.4501C70.5929 26.8884 69.6188 26.4501 69.0343 25.3858C67.5407 22.4431 66.1121 19.5004 64.6834 16.4952C64.4886 16.2447 64.4886 15.8691 64.6834 15.6186C65.4627 14.6169 66.177 13.6151 67.0212 12.4255Z" fill="#FFEDED"/>
<path d="M82.8013 19.25L75.8529 9.67065C77.2815 9.67065 78.5803 8.85672 79.0998 7.54192L85.9834 16.996C84.5547 17.0586 83.3208 17.9352 82.8013 19.25Z" fill="#FFEDED"/>
<path d="M58.3193 13.6151C58.3193 10.735 58.3193 7.79236 58.3193 4.9123C58.3193 3.91055 58.3193 2.90879 58.3193 1.90703C58.3843 0.84266 59.2934 0.0287313 60.3325 0.0913412C61.3715 0.153951 62.1508 0.90527 62.2157 1.84442C62.2806 3.91055 62.2157 6.03928 62.2157 8.10541C62.2157 8.35585 62.1508 8.60629 61.9559 8.79412C60.787 10.3594 59.6181 11.9872 58.4492 13.5525L58.3193 13.6151Z" fill="#FFEDED"/>
<path d="M91.1135 16.1195C92.4123 16.9334 93.7111 16.6204 95.0748 16.8082V24.5718C95.0748 25.8866 94.2306 26.7006 93.0617 26.7006C91.9577 26.7006 91.1135 25.824 91.1135 24.5718C91.1135 21.7544 91.1135 19.0621 91.1135 16.1195Z" fill="#FFEDED"/>
<path d="M42.1496 9.04455C43.3185 9.79587 44.8121 9.79587 45.916 9.04455V17.6221C44.6822 17.0586 43.4483 16.8708 42.1496 17.7473V9.04455Z" fill="#FFEDED"/>
<path d="M9.80996 9.16978C11.5633 9.73326 11.5633 9.73326 13.6414 9.16978V17.6221C12.3426 16.9334 11.1087 16.8708 9.80996 17.6221V9.16978Z" fill="#FFEDED"/>
<path d="M3.90048 17.6847C2.73158 16.8708 1.17304 16.8708 0.0041325 17.6847V9.04455C1.17304 9.79587 2.66664 9.79587 3.90048 9.04455V17.6847Z" fill="#FFEDED"/>
<path d="M58.3193 18.8117C59.4882 19.563 61.0467 19.6256 62.2156 18.8743C62.2156 21.0031 62.2806 23.0066 62.2156 24.9475C62.1507 25.9492 61.3065 26.6379 60.2675 26.6379C59.2284 26.6379 58.3193 25.824 58.3193 24.8223C58.2543 22.8814 58.3193 20.8778 58.3193 18.8117Z" fill="#FFEDED"/>
<path d="M95.0101 4.97491C95.0101 5.28796 95.0751 5.47579 95.0751 5.60101V10.6098C93.7763 10.735 92.4126 10.5472 91.1787 11.2359V4.34881C92.3476 5.16274 93.6464 4.84969 95.0101 4.97491Z" fill="#FFEDED"/>
</svg>
