<svg width="130" height="38" viewBox="0 0 130 38" fill="none" xmlns="http://www.w3.org/2000/svg">
<path d="M71.4352 10.4595V5.08839H58.7068V31.07H71.4352V25.6989H64.4736V20.7647H69.9026V15.3937H64.4736V10.4595H71.4352Z" fill="#FFEDED"/>
<path d="M13.4818 5.08839H0V10.4595H3.76659V31.07H9.61129V10.4595H13.4818V5.08839Z" fill="#FFEDED"/>
<path d="M48.2123 5.08839V24.3369C48.2123 25.6732 47.1213 26.7783 45.7445 26.7783C44.3678 26.7783 43.2768 25.6989 43.2768 24.3369V5.08839H37.8217V24.0028C37.8217 28.3202 41.3805 31.841 45.7445 31.841C50.1086 31.841 53.6674 28.3202 53.6674 24.0028V5.08839H48.2123Z" fill="#FFEDED"/>
<path d="M124.635 17.4496C126.35 17.4496 127.752 16.0618 127.752 14.3657V12.7981C127.752 8.55776 124.271 5.1141 119.985 5.1141H114.193V31.1471H120.895C125.051 31.1471 128.402 27.8062 128.402 23.7201V21.2273C128.428 19.12 126.713 17.4496 124.635 17.4496ZM119.752 10.4338H120.245C121.466 10.4338 122.453 11.4103 122.453 12.6182V12.9009C122.453 14.1087 121.466 15.0853 120.245 15.0853H119.752V10.4338ZM119.752 26.033V19.9938C121.44 19.9938 122.817 21.3558 122.817 23.0262C122.817 24.6967 121.44 26.033 119.752 26.033Z" fill="#FFEDED"/>
<path d="M129.882 2.51849V0H74.8642V2.51849H76.7864V27.1894H89.5668V21.4843H82.5532V2.51849H129.882Z" fill="#FFEDED"/>
<path d="M110.01 34.5907L104.296 8.99463H97.3338L91.619 34.5907H74.8642V37.1092H129.882V34.5907H110.01ZM100.815 19.5826L102.347 26.8811H99.1781L100.815 19.5826ZM97.3858 34.5907L98.0352 32.2521H103.49L104.14 34.5907H97.3858Z" fill="#FFEDED"/>
<path d="M34.7305 31.07L30.2106 22.1782C32.4965 20.4306 33.9772 17.7066 33.9772 14.6227C33.9772 9.35441 29.6651 5.08839 24.3399 5.08839H18.1056V31.07H23.9503V24.157H24.3399C24.5477 24.157 24.7556 24.1313 24.9634 24.1313L28.4962 31.07H34.7305ZM23.6905 10.4595H24.0802C26.47 10.4595 28.4182 12.3869 28.4182 14.7512C28.4182 17.1155 26.47 19.0429 24.0802 19.0429H23.6905V10.4595Z" fill="#FFEDED"/>
</svg>
