<svg width="130" height="33" viewBox="0 0 130 33" fill="none" xmlns="http://www.w3.org/2000/svg">
<path d="M109.947 0.0115518C110.207 0.0115518 110.415 0.0115518 110.648 0.0115518C113.376 0.0115518 116.103 -0.0144397 118.856 0.0115518C120.83 0.0115518 122.726 0.401425 124.492 1.25914C126.752 2.3248 128.31 4.04024 129.142 6.37947C130.155 9.23854 130.129 12.1236 129.064 15.0087C128.129 17.5558 126.362 19.2713 123.869 20.2589C122.388 20.8308 120.856 21.1946 119.246 21.1946C116.259 21.1946 113.272 21.1946 110.311 21.1946C110.207 21.1946 110.103 21.1946 109.973 21.1946C109.947 14.099 109.947 7.08124 109.947 0.0115518ZM115.531 4.43011C115.531 8.58875 115.531 12.6434 115.531 16.6981C116.674 16.6981 117.791 16.7241 118.882 16.6981C119.35 16.6981 119.817 16.6201 120.285 16.5162C122.285 16.0483 123.557 14.8267 124.051 12.7994C124.362 11.5258 124.362 10.2522 124.181 8.97863C123.791 6.48344 122.103 4.84597 119.583 4.61205C118.259 4.48209 116.908 4.48209 115.531 4.43011Z" fill="#FFEDED"/>
<path d="M80.5708 21.1427C79.9734 19.7391 79.35 18.3096 78.7266 16.8541C75.6098 16.8541 72.5189 16.8541 69.3501 16.8541C68.7267 18.2836 68.1293 19.7131 67.506 21.1427C65.6618 21.1427 63.8437 21.1427 61.9216 21.1427C65.2203 14.073 68.493 7.05525 71.7916 0.0375457C73.2721 0.0375457 74.7007 0.0375457 76.2072 0.0375457C79.4799 7.05525 82.7785 14.047 86.1032 21.1427C84.2071 21.1427 82.4409 21.1427 80.5708 21.1427ZM76.8825 12.6174C75.9215 10.3822 74.9864 8.25086 74.0254 5.9896C73.0384 8.27686 72.1033 10.4342 71.1683 12.6174C73.0903 12.6174 74.9604 12.6174 76.8825 12.6174Z" fill="#FFEDED"/>
<path d="M52.8568 4.43009C49.74 4.43009 46.701 4.43009 43.6361 4.43009C43.6361 2.94858 43.6361 1.54504 43.6361 0.0895106C48.8049 0.0895106 53.9737 0.0895106 59.2204 0.0895106C59.2204 1.10318 59.1944 2.11685 59.2464 3.13052C59.2723 3.78031 59.0905 4.27414 58.7009 4.79397C55.8698 8.58874 53.0646 12.4095 50.2594 16.2043C50.1296 16.3862 50.0257 16.5681 49.8439 16.828C53.1425 16.828 56.3373 16.828 59.558 16.828C59.558 18.3096 59.558 19.7131 59.558 21.1686C54.2594 21.1686 48.9608 21.1686 43.6361 21.1686C43.6361 19.895 43.6102 18.6475 43.6621 17.3999C43.6621 17.1399 43.8699 16.854 44.0258 16.6461C46.4153 13.3972 48.8049 10.1222 51.1685 6.8733C51.662 6.19752 52.1555 5.52174 52.649 4.84596C52.675 4.74199 52.7529 4.61203 52.8568 4.43009Z" fill="#FFEDED"/>
<path d="M34.0777 21.1167C34.0777 14.0989 34.0777 7.10723 34.0777 0.0635291C35.9218 0.0635291 37.7659 0.0635291 39.6101 0.0635291C39.6101 7.08124 39.6101 14.073 39.6101 21.1167C37.8179 21.1167 35.9738 21.1167 34.0777 21.1167Z" fill="#FFEDED"/>
<path d="M106.804 20.5448C106.077 18.6735 105.324 16.8281 104.596 14.9567C104.129 13.7351 103.376 12.7474 101.895 12.3055C103.09 11.8897 103.999 11.3179 104.726 10.4861C105.947 9.10858 106.337 7.44513 106.181 5.65171C105.973 3.2345 104.752 1.57104 102.519 0.66134C101.22 0.141509 99.8433 0.0375433 98.4667 0.0115518C95.4537 -0.0144397 92.4148 0.0115518 89.4018 0.0115518C89.1941 0.0115518 88.9603 0.0115518 88.7265 0.0115518C88.7265 7.10723 88.7265 14.099 88.7265 21.1427C90.5707 21.1427 92.3628 21.1427 94.207 21.1427C94.207 18.4135 94.207 15.7104 94.207 12.9813C95.0381 12.9813 95.8433 12.9553 96.6225 12.9813C97.5316 13.0073 98.2069 13.4492 98.5186 14.3329C98.8303 15.1906 99.168 16.0483 99.5056 16.906C100.051 18.3096 100.597 19.7131 101.142 21.1167C103.116 21.1167 105.038 21.1167 107.012 21.1167C106.934 20.9087 106.882 20.7268 106.804 20.5448ZM98.7264 8.82268H94.1291V4.27416H98.7264C99.9731 4.27416 100.986 5.28783 100.986 6.53542C100.986 7.78301 99.9731 8.82268 98.7264 8.82268Z" fill="#FFEDED"/>
<path d="M64.8827 32.371C64.4931 32.371 64.2073 32.371 63.8957 32.371C63.8957 30.8635 63.8957 29.382 63.8957 27.9005C64.1814 27.9005 64.4411 27.9005 64.7788 27.9005C65.1943 28.8621 65.6359 29.8238 66.1294 30.9415C66.5969 29.8498 67.0385 28.8881 67.48 27.9005C67.7917 27.9005 68.0774 27.9005 68.3891 27.9005C68.3891 29.408 68.3891 30.8895 68.3891 32.371C68.0514 32.371 67.7398 32.371 67.4021 32.371C67.4021 31.7732 67.4021 31.2014 67.4021 30.6036C67.3761 30.6036 66.8047 31.7472 66.545 32.345C66.2852 32.345 66.0515 32.345 65.7658 32.345C65.532 31.7992 64.9606 30.6296 64.9346 30.6296C64.8827 31.2014 64.8827 31.7732 64.8827 32.371Z" fill="#FFEDED"/>
<path d="M32.5452 28.3163C32.4154 28.5762 32.2855 28.8361 32.1816 29.1221C31.4803 28.8102 30.779 28.4723 30.1037 29.0961C29.6881 29.4859 29.6362 30.4216 29.9479 30.9934C30.2076 31.4873 30.6751 31.6432 31.5842 31.4873C31.5842 31.3833 31.5842 30.6556 31.5842 30.6556H30.8829C30.8829 30.6556 30.8829 30.1877 30.8829 29.9018C31.4803 29.9018 32.0777 29.9018 32.7011 29.9018C32.7011 30.6556 32.7011 31.3573 32.7011 32.1891C32.3634 32.267 31.9998 32.371 31.6362 32.423C31.3764 32.449 28.1557 32.9948 28.6232 29.6159C28.831 28.5762 29.5842 27.9264 30.6492 27.8485C31.2985 27.7705 31.9478 27.8485 32.5452 28.3163Z" fill="#FFEDED"/>
<path d="M83.1422 28.7582C83.1422 29.0961 83.1422 29.33 83.1422 29.6159C83.7656 29.6159 84.3889 29.6159 85.0383 29.6159C85.0383 29.9538 85.0383 30.2137 85.0383 30.5516C84.4149 30.5516 83.7915 30.5516 83.1422 30.5516C83.1422 30.8895 83.1422 31.1494 83.1422 31.4613C83.8175 31.4613 84.4669 31.4613 85.1422 31.4613C85.1422 31.7732 85.1422 32.0591 85.1422 32.371C84.0772 32.371 83.0383 32.371 81.9734 32.371C81.9734 30.8895 81.9734 29.408 81.9734 27.9264C83.0123 27.9264 84.0772 27.9264 85.1681 27.9264C85.1681 28.1864 85.1681 28.4463 85.1681 28.7842C84.5188 28.7582 83.8435 28.7582 83.1422 28.7582Z" fill="#FFEDED"/>
<path d="M47.7399 27.8745C48.1036 27.8745 48.3633 27.8745 48.701 27.8745C49.4022 29.33 50.0776 30.8115 50.8048 32.345C50.3893 32.345 50.0516 32.345 49.636 32.345C49.5061 32.0851 49.3763 31.7992 49.2204 31.4873C48.5711 31.4873 47.9217 31.4873 47.2464 31.4873C47.1166 31.7732 46.9867 32.0331 46.8308 32.371C46.4672 32.371 46.1036 32.371 45.6361 32.371C46.3373 30.8375 47.0386 29.382 47.7399 27.8745ZM48.8568 30.5516C48.623 30.0578 48.4412 29.6679 48.2334 29.174C47.9997 29.6939 47.8438 30.1097 47.636 30.5516C48.0516 30.5516 48.3893 30.5516 48.8568 30.5516Z" fill="#FFEDED"/>
<path d="M101.869 30.2657C101.713 30.0837 101.532 29.9538 101.324 29.8498C101.116 29.7718 100.856 29.6939 100.545 29.6419C100.519 29.6419 100.519 29.6419 100.519 29.6419C100.493 29.6419 100.493 29.6419 100.467 29.6419H100.415C100.207 29.5899 100.025 29.5639 99.9212 29.5379C99.8173 29.5119 99.7134 29.4599 99.6614 29.382C99.5835 29.33 99.5575 29.226 99.5575 29.122C99.5575 28.9921 99.6095 28.8881 99.7653 28.8101C99.9212 28.7322 100.129 28.6802 100.389 28.6802C100.571 28.6802 100.752 28.7062 100.96 28.7842C101.168 28.8361 101.35 28.9401 101.532 29.0441L101.583 29.0961L101.609 29.0441L101.999 28.3163L102.025 28.2643L101.973 28.2383C101.817 28.1344 101.635 28.0564 101.454 27.9784C101.272 27.9004 101.09 27.8485 100.908 27.8225C100.726 27.7965 100.545 27.7705 100.363 27.7705C99.9731 27.7705 99.6355 27.8225 99.3757 27.9264C99.09 28.0304 98.8822 28.2123 98.7264 28.4203C98.5705 28.6282 98.4926 28.9141 98.4926 29.2C98.4926 29.5379 98.5705 29.8238 98.7264 30.0058C98.8822 30.1877 99.09 30.3177 99.2978 30.3956C99.5056 30.4736 99.7913 30.5256 100.129 30.5776H100.233C100.415 30.6036 100.571 30.6296 100.674 30.6555C100.778 30.6815 100.856 30.7335 100.934 30.7855C100.986 30.8375 101.012 30.9155 101.012 31.0194C101.012 31.1754 100.934 31.2793 100.804 31.3573C100.648 31.4353 100.415 31.4873 100.129 31.4873C99.8692 31.4873 99.6355 31.4613 99.4017 31.3833C99.1679 31.3053 98.9601 31.2014 98.7783 31.0714L98.7264 31.0194L98.6744 31.0714L98.2588 31.7732L98.2329 31.8252L98.2848 31.8512C98.4407 31.9811 98.6225 32.0851 98.8303 32.163C99.0381 32.241 99.2458 32.319 99.4796 32.371C99.7134 32.423 99.9212 32.449 100.155 32.449H100.181C100.571 32.449 100.934 32.397 101.22 32.293C101.506 32.189 101.739 32.0071 101.895 31.7992C102.051 31.5912 102.129 31.3313 102.129 31.0194C102.103 30.7075 102.025 30.4476 101.869 30.2657Z" fill="#FFEDED"/>
<path d="M5.66227 0.0114178H0L7.55835 21.1685C7.55835 21.1685 11.6882 21.8443 12.9609 18.4134C14.2336 14.9825 16.1557 9.68026 16.1557 9.68026L22.1556 13.3451H17.4803L19.4803 18.9072C19.4803 18.9072 20.2855 21.2205 24.753 21.2205L32.2853 0.0114178H26.5971L22.3114 13.0851L17.5582 0.0114178H14.7531L10.0259 13.2671L5.66227 0.0114178Z" fill="#FFEDED"/>
<path d="M5.01321 22.7801C5.01321 22.7801 15.4546 25.4053 27.2467 22.7801C27.2467 22.7801 24.4416 25.8991 16.13 25.9771C7.84434 26.0551 5.01321 22.7801 5.01321 22.7801Z" fill="#FFEDED"/>
</svg>
