<svg width="18" height="18" viewBox="0 0 18 18" fill="none" xmlns="http://www.w3.org/2000/svg">
<g clip-path="url(#clip0_6_9482)">
<path d="M0 8.99995C0 10.1008 0.198035 11.1554 0.559793 12.1304L9 12.913L17.4402 12.1304C17.802 11.1554 18 10.1008 18 8.99995C18 7.89906 17.802 6.84452 17.4402 5.86953L9 5.08691L0.559793 5.86953C0.198035 6.84452 0 7.89906 0 8.99995Z" fill="#FFDA44"/>
<path d="M17.441 5.86958C16.1693 2.44241 12.8704 0 9.00075 0C5.13107 0 1.83218 2.44241 0.560547 5.86958H17.441Z" fill="#D80027"/>
<path d="M0.560547 12.1304C1.83218 15.5575 5.13107 18 9.00075 18C12.8704 18 16.1693 15.5575 17.441 12.1304H0.560547Z" fill="#D80027"/>
</g>
<defs>
<clipPath id="clip0_6_9482">
<rect width="18" height="18" rx="9" fill="white"/>
</clipPath>
</defs>
</svg>
